<?xml version="1.0" encoding="UTF-8"?>
<!DOCTYPE svg PUBLIC "-//W3C//DTD SVG 1.1//EN" "http://www.w3.org/Graphics/SVG/1.1/DTD/svg11.dtd">
<!-- Creator: CorelDRAW -->
<svg xmlns="http://www.w3.org/2000/svg" xml:space="preserve" width="309.032mm" height="55.7389mm" version="1.1" style="shape-rendering:geometricPrecision; text-rendering:geometricPrecision; image-rendering:optimizeQuality; fill-rule:evenodd; clip-rule:evenodd"
viewBox="0 0 27704.16 4996.89"
 xmlns:xlink="http://www.w3.org/1999/xlink"
 xmlns:xodm="http://www.corel.com/coreldraw/odm/2003">
 <defs>
  <style type="text/css">
   <![CDATA[
    .fil0 {fill:#231F20;fill-rule:nonzero}
    .fil1 {fill:#333940;fill-rule:nonzero}
    .fil2 {fill:#616B6C;fill-rule:nonzero}
   ]]>
  </style>
 </defs>
 <g id="Layer_x0020_1">
  <metadata id="CorelCorpID_0Corel-Layer"/>
  <polygon class="fil0" points="276.73,1280.85 -0,2395.66 2055.68,2324.49 1960.8,4996.89 3217.93,4522.5 2941.2,1589.2 "/>
  <polygon class="fil0" points="5226.16,2213.81 4981.07,1794.76 3289.09,1612.91 3565.82,4008.58 4577.85,3739.75 4103.45,2253.34 "/>
  <polygon class="fil0" points="4293.21,1130.62 1004.12,0 774.83,940.87 4522.5,1494.32 "/>
  <path class="fil1" d="M7467.51 3244.51c57.46,39.94 137.19,59.83 239.38,59.83 47.88,0 98.89,-5.53 153.23,-16.76 54.2,-11.13 100.5,-24.67 138.8,-40.67 28.75,31.91 52.69,68.66 71.83,110.09 19.17,41.53 28.71,89.41 28.71,143.64 0,111.74 -43.9,203.46 -131.66,275.27 -87.83,71.83 -240.17,107.72 -457.19,107.72 -268.12,0 -477.2,-61.48 -627.17,-184.32 -150.06,-122.84 -225.02,-323.15 -225.02,-600.83l0 -2149.61c35.07,-9.58 81.37,-19.89 138.84,-31.12 57.46,-11.17 119.67,-16.76 186.68,-16.76 140.42,0 241.78,24.76 304.02,74.23 62.27,49.49 93.36,139.65 93.36,270.46l0 311.2 660.69 0c15.91,31.94 31.85,72.64 47.89,122.1 15.94,49.49 23.94,101.37 23.94,155.57 0,102.19 -23.21,175.59 -69.41,220.25 -46.34,44.72 -106.17,67.01 -179.55,67.01l-483.55 0 0 928.79c0,89.38 28.74,154.02 86.18,193.9z"/>
  <path class="fil1" d="M10368.7 3136.78c0,236.25 -87.82,420.57 -263.31,552.95 -175.56,132.42 -434.09,198.71 -775.59,198.71 -134.03,0 -256.11,-9.58 -366.23,-28.75 -110.12,-19.13 -205.12,-47.85 -284.86,-86.15 -79.82,-38.3 -142.06,-86.18 -186.72,-143.64 -44.72,-57.43 -67.01,-124.48 -67.01,-201.07 0,-70.15 14.36,-129.98 43.08,-179.51 28.75,-49.46 65.37,-90.13 110.12,-122.11 92.53,54.34 197.84,102.19 315.97,143.64 118.02,41.5 255.31,62.24 411.74,62.24 226.57,0 339.91,-63.82 339.91,-191.52 0,-54.21 -19.98,-95.74 -59.83,-124.48 -39.97,-28.72 -107.75,-54.25 -203.48,-76.6l-191.5 -43.08c-261.76,-54.24 -456.49,-138.01 -584.09,-251.36 -127.7,-113.25 -191.5,-272.05 -191.5,-476.35 0,-226.59 91.72,-406.11 275.27,-538.59 183.53,-132.42 430.08,-198.71 739.7,-198.71 114.89,0 223.38,8.86 325.56,26.35 102.09,17.58 189.82,43.93 263.29,79 73.4,35.17 131.66,79.01 174.76,131.66 43.08,52.66 64.65,114.14 64.65,184.32 0,63.88 -12.81,120.53 -38.3,169.96 -25.59,49.52 -59.11,90.22 -100.57,122.07 -25.59,-15.91 -63.07,-33.53 -112.5,-52.66 -49.52,-19.13 -102.94,-36.66 -160.37,-52.66 -57.46,-15.94 -118.12,-28.71 -181.94,-38.3 -63.89,-9.58 -122.9,-14.39 -177.14,-14.39 -111.76,0 -198.67,15.21 -260.91,45.51 -62.23,30.36 -93.36,75.84 -93.36,136.44 0,44.73 17.53,79.82 52.66,105.32 35.11,25.61 98.89,49.52 191.52,71.82l181.91 43.11c290.39,63.88 497.91,156.42 622.36,277.68 124.49,121.31 186.72,277.67 186.72,469.16z"/>
  <path class="fil1" d="M11354.87 3833.37c-57.44,7.93 -121.32,11.95 -191.5,11.95 -143.64,0 -247.38,-23.18 -311.2,-69.39 -63.88,-46.23 -95.74,-136.46 -95.74,-270.52l0 -2810.28c35.07,-9.58 81.37,-19.13 138.81,-28.71 57.46,-9.58 121.28,-14.36 191.52,-14.36 143.61,0 246.55,23.95 308.79,71.8 62.24,47.88 93.36,138.83 93.36,272.9l0 550.57c67.01,-31.88 142.79,-58.23 227.39,-79.01 84.53,-20.71 176.31,-31.12 275.3,-31.12 306.39,0 546.53,77.42 720.53,232.2 173.92,154.84 260.92,387.04 260.92,696.59l0 1441.03c-31.95,9.58 -76.6,18.34 -134.07,26.35 -57.46,7.93 -121.35,11.95 -191.49,11.95 -143.62,0 -247.38,-23.18 -311.2,-69.39 -63.88,-46.23 -95.76,-136.46 -95.76,-270.52l0 -1096.34c0,-143.62 -35.9,-245.73 -107.69,-306.39 -71.83,-60.6 -163.63,-90.96 -275.3,-90.96 -73.47,0 -140.49,10.4 -201.08,31.12 -60.66,20.78 -116.54,45.48 -167.55,74.19l0 1689.99c-31.94,9.58 -76.63,18.34 -134.06,26.35z"/>
  <path class="fil1" d="M14222.59 3807.04c-31.94,9.58 -76.66,18.34 -134.06,26.34 -57.46,7.91 -121.35,11.96 -191.52,11.96 -143.62,0 -246.52,-23.18 -308.79,-69.42 -62.22,-46.23 -93.33,-136.43 -93.33,-270.5l0 -1967.66c31.85,-9.58 76.6,-19.17 134.03,-28.75 57.46,-9.56 121.25,-14.36 191.52,-14.36 143.58,0 246.56,23.95 308.77,71.83 62.27,47.85 93.39,138.84 93.39,272.9l0 1967.67zm-770.81 -2958.69c0,-108.48 37.47,-201.08 112.53,-277.68 74.95,-76.6 173.08,-114.9 294.4,-114.9 121.25,0 219.41,38.3 294.47,114.9 74.92,76.6 112.46,169.19 112.46,277.68 0,111.73 -37.54,205.85 -112.46,282.45 -75.05,76.6 -173.22,114.9 -294.47,114.9 -121.32,0 -219.46,-38.31 -294.4,-114.9 -75.05,-76.6 -112.53,-170.72 -112.53,-282.45z"/>
  <path class="fil1" d="M15467.3 3807.04c-31.94,9.58 -76.6,18.34 -134.02,26.34 -57.53,7.91 -121.38,11.96 -191.56,11.96 -143.62,0 -247.38,-23.18 -311.2,-69.42 -63.86,-46.23 -95.74,-136.43 -95.74,-270.5l0 -1460.2c0,-89.31 22.3,-165.94 67.01,-229.82 44.66,-63.79 106.93,-119.67 186.72,-167.53 105.32,-63.85 232.2,-114.1 380.62,-150.82 148.46,-36.65 303.99,-55.05 466.8,-55.05 331.89,0 497.86,111.76 497.86,335.1 0,54.34 -7.97,103.76 -23.88,148.42 -16,44.75 -33.56,83.05 -52.69,114.93 -73.47,-15.94 -162.78,-23.95 -268.09,-23.95 -92.61,0 -185.14,11.2 -277.65,33.49 -92.66,22.36 -174,52.66 -244.18,90.96l0 1666.08z"/>
  <path class="fil1" d="M17444.54 3244.51c57.44,39.94 137.2,59.83 239.35,59.83 47.88,0 98.89,-5.53 153.19,-16.76 54.24,-11.13 100.57,-24.67 138.87,-40.67 28.71,31.91 52.69,68.66 71.82,110.09 19.17,41.53 28.71,89.41 28.71,143.64 0,111.74 -43.89,203.46 -131.68,275.27 -87.77,71.83 -240.14,107.72 -457.21,107.72 -268.07,0 -477.17,-61.48 -627.14,-184.32 -150.04,-122.84 -225.02,-323.15 -225.02,-600.83l0 -2149.61c35.07,-9.58 81.4,-19.89 138.86,-31.12 57.44,-11.17 119.71,-16.76 186.72,-16.76 140.39,0 241.75,24.76 303.96,74.23 62.27,49.49 93.39,139.65 93.39,270.46l0 311.2 660.7 0c15.94,31.94 31.88,72.64 47.88,122.1 15.94,49.49 23.91,101.37 23.91,155.57 0,102.19 -23.18,175.59 -69.45,220.25 -46.27,44.72 -106.11,67.01 -179.51,67.01l-483.53 0 0 928.79c0,89.38 28.75,154.02 86.18,193.9z"/>
  <path class="fil2" d="M18866.47 3823.8c-31.94,7.93 -67.02,11.95 -105.32,11.95 -137.31,0 -205.89,-57.43 -205.89,-172.33l0 -2953.91c15.94,-6.36 40.71,-13.54 74.2,-21.53 33.52,-7.94 69.41,-11.99 107.71,-11.99 134.03,0 201.08,57.46 201.08,172.36l0 861.77c76.57,-44.68 166.76,-84.53 270.46,-119.7 103.74,-35.11 221.04,-52.66 351.9,-52.66 134.03,0 256.17,17.55 366.29,52.66 110.09,35.17 205.03,88.58 284.82,160.37 79.76,71.83 142,162.78 186.72,272.9 44.69,110.09 67.05,238.62 67.05,385.4l0 1393.18c-16,6.43 -40.74,13.54 -74.19,21.54 -33.56,7.93 -67.91,11.95 -102.98,11.95 -137.25,0 -205.89,-57.43 -205.89,-172.33l0 -1244.76c0,-191.5 -52.62,-333.5 -157.93,-426.1 -105.32,-92.53 -244.18,-138.84 -416.51,-138.84 -111.8,0 -216.26,19.96 -313.61,59.84 -97.4,39.94 -182.77,88.58 -256.13,146.01l0 1742.68c-16,6.43 -39.91,13.54 -71.79,21.54z"/>
  <path class="fil2" d="M21829.92 3562.89c134.09,0 244.91,-13.54 332.73,-40.71 87.79,-27.06 150.86,-53.41 189.16,-79l0 -694.19 -593.69 62.24c-166.03,16 -288.86,53.48 -368.62,112.53 -79.8,59.08 -119.71,146.02 -119.71,260.91 0,121.32 46.27,214.68 138.87,280.04 92.5,65.47 232.92,98.17 421.26,98.17zm-4.75 -2025.13c277.65,0 497.92,62.24 660.67,186.72 162.77,124.48 244.18,320.75 244.18,588.84l0 1134.67c0,70.24 -13.66,123.72 -40.71,160.38 -27.2,36.71 -67.9,71.06 -122.14,102.91 -76.57,44.75 -177.92,83.81 -303.95,117.3 -126.13,33.52 -270.5,50.28 -433.31,50.28 -300.01,0 -532.21,-59.11 -696.57,-177.14 -164.45,-118.07 -246.52,-288.85 -246.52,-512.28 0,-210.66 68.56,-369.4 205.82,-476.35 137.16,-106.9 330.34,-173.12 579.32,-198.67l679.83 -67.05 0 -134.06c0,-159.56 -47.88,-276.04 -143.68,-349.5 -95.73,-73.37 -224.95,-110.09 -387.79,-110.09 -134.03,0 -260.16,19.13 -378.22,57.43 -118.09,38.31 -223.4,81.41 -315.95,129.29 -25.59,-22.3 -48.67,-47.88 -69.41,-76.63 -20.81,-28.71 -31.15,-60.57 -31.15,-95.73 0,-44.66 11.2,-81.41 33.56,-110.12 22.3,-28.71 57.43,-55.79 105.32,-81.37 86.18,-44.65 185.07,-79.01 296.81,-102.94 111.67,-23.95 232.99,-35.9 363.88,-35.9z"/>
  <path class="fil2" d="M24666.54 1978.19c-100.57,-82.96 -235.45,-124.49 -404.59,-124.49 -127.68,0 -241.02,16 -339.92,47.88 -98.95,31.94 -183.58,68.7 -253.73,110.12l0 1790.53c-16,6.45 -39.91,13.54 -71.79,21.53 -31.94,7.94 -67.01,11.99 -105.31,11.99 -137.32,0 -205.89,-57.46 -205.89,-172.36l0 -1632.53c0,-67.05 13.54,-122.11 40.7,-165.19 27.07,-43.08 74.19,-85.35 141.21,-126.88 82.95,-51.02 193.1,-97.31 330.33,-138.84 137.2,-41.44 292.06,-62.24 464.4,-62.24 290.39,0 519.48,65.47 687.01,196.3 167.59,130.9 251.39,336.78 251.39,617.59l0 1450.61c-16.06,6.45 -40.7,13.54 -74.26,21.53 -33.46,7.94 -67.81,11.99 -102.91,11.99 -137.26,0 -205.86,-57.46 -205.86,-172.36l0 -1292.62c0,-178.71 -50.28,-309.58 -150.79,-392.6z"/>
  <path class="fil2" d="M26708.39 1848.94c-194.75,0 -355.98,67.84 -483.59,203.48 -127.68,135.67 -194.69,329.57 -201.04,581.65l1316.58 -181.9c-16.03,-175.5 -77.45,-319.93 -184.32,-433.28 -106.99,-113.25 -256.13,-169.95 -447.63,-169.95zm-660.7 1081.98c86.18,418.15 360.63,627.18 823.44,627.18 134.06,0 255.32,-22.3 363.83,-67.05 108.47,-44.66 194.72,-92.51 258.57,-143.62 76.6,44.72 114.89,105.32 114.89,181.91 0,44.75 -19.96,87.82 -59.87,129.28 -39.95,41.53 -94.18,78.24 -162.75,110.12 -68.69,31.91 -148.42,57.44 -239.41,76.57 -90.93,19.17 -189.09,28.75 -294.4,28.75 -370.31,0 -663.1,-100.54 -878.53,-301.62 -215.47,-201.07 -323.13,-494.69 -323.13,-880.91 0,-181.94 26.31,-343.86 78.94,-485.93 52.69,-142 126.05,-262.49 220.27,-361.45 94.05,-98.89 206.61,-174.76 337.51,-227.42 130.81,-52.66 272.9,-79 426.06,-79 143.62,0 276.06,23.94 397.38,71.82 121.25,47.88 225.78,115.72 313.6,203.45 87.7,87.86 156.33,191.53 205.89,311.2 49.4,119.7 74.17,251.36 74.17,394.97 0,70.24 -16,120.52 -47.85,150.79 -31.94,30.4 -76.6,48.71 -134.06,55.1l-1474.56 205.85z"/>
 </g>
</svg>
