<?xml version="1.0" encoding="UTF-8"?>
<!DOCTYPE svg PUBLIC "-//W3C//DTD SVG 1.1//EN" "http://www.w3.org/Graphics/SVG/1.1/DTD/svg11.dtd">
<!-- Creator: CorelDRAW -->
<svg xmlns="http://www.w3.org/2000/svg" xml:space="preserve" width="187.95mm" height="33.8997mm" version="1.1" style="shape-rendering:geometricPrecision; text-rendering:geometricPrecision; image-rendering:optimizeQuality; fill-rule:evenodd; clip-rule:evenodd"
viewBox="0 0 15752.03 2841.12"
 xmlns:xlink="http://www.w3.org/1999/xlink"
 xmlns:xodm="http://www.corel.com/coreldraw/odm/2003">
 <defs>
  <style type="text/css">
   <![CDATA[
    .fil0 {fill:white;fill-rule:nonzero}
   ]]>
  </style>
 </defs>
 <g id="Layer_x0020_1">
  <metadata id="CorelCorpID_0Corel-Layer"/>
  <polygon class="fil0" points="157.35,728.3 -0,1362.11 1168.81,1321.63 1114.89,2841.12 1829.67,2571.39 1672.32,903.62 "/>
  <polygon class="fil0" points="2971.51,1258.75 2832.16,1020.48 1870.11,917.05 2027.46,2279.2 2602.87,2126.34 2333.15,1281.22 "/>
  <polygon class="fil0" points="2441.04,642.89 570.94,0 440.56,534.97 2571.42,849.67 "/>
  <path class="fil0" d="M4245.89 1844.67c32.67,22.7 77.99,34 136.12,34 27.2,0 56.2,-3.11 87.1,-9.52 30.83,-6.36 57.15,-14.01 78.94,-23.15 16.32,18.18 29.92,39.08 40.83,62.65 10.88,23.57 16.32,50.82 16.32,81.66 0,63.5 -24.95,115.66 -74.86,156.49 -49.94,40.83 -136.57,61.26 -259.95,61.26 -152.44,0 -271.33,-35.01 -356.59,-104.81 -85.33,-69.81 -127.96,-183.75 -127.96,-341.64l0 -1222.17c19.96,-5.51 46.3,-11.32 78.94,-17.74 32.67,-6.29 68.06,-9.52 106.17,-9.52 79.83,0 137.48,14.07 172.84,42.19 35.43,28.18 53.1,79.42 53.1,153.81l0 176.92 375.64 0c9.04,18.18 18.12,41.33 27.23,69.42 9.04,28.18 13.6,57.63 13.6,88.46 0,58.16 -13.19,99.85 -39.47,125.25 -26.32,25.39 -60.34,38.11 -102.06,38.11l-274.94 0 0 528.08c0,50.82 16.33,87.55 49,110.25z"/>
  <path class="fil0" d="M5895.44 1783.41c0,134.31 -49.94,239.13 -149.73,314.44 -99.82,75.24 -246.82,112.94 -440.98,112.94 -76.22,0 -145.61,-5.44 -208.23,-16.35 -62.62,-10.85 -116.61,-27.2 -161.96,-48.96 -45.38,-21.77 -80.78,-49.02 -106.17,-81.72 -25.43,-32.61 -38.12,-70.72 -38.12,-114.27 0,-39.88 8.16,-73.91 24.51,-102.09 16.32,-28.12 37.16,-51.27 62.59,-69.42 52.63,30.89 112.53,58.1 179.67,81.66 67.12,23.63 145.17,35.39 234.11,35.39 128.82,0 193.27,-36.25 193.27,-108.89 0,-30.83 -11.38,-54.4 -34.03,-70.75 -22.7,-16.35 -61.26,-30.83 -115.69,-43.58l-108.89 -24.51c-148.8,-30.81 -259.53,-78.47 -332.09,-142.92 -72.61,-64.37 -108.89,-154.64 -108.89,-270.83 0,-128.82 52.15,-230.91 156.52,-306.22 104.34,-75.3 244.51,-112.94 420.58,-112.94 65.31,0 126.99,5.02 185.09,14.93 58.06,10 107.95,24.96 149.72,44.95 41.72,19.98 74.87,44.94 99.37,74.83 24.48,29.98 36.73,64.93 36.73,104.81 0,36.34 -7.27,68.56 -21.77,96.62 -14.54,28.18 -33.62,51.32 -57.17,69.39 -14.52,-8.99 -35.84,-19.04 -63.96,-29.89 -28.14,-10.91 -58.54,-20.84 -91.21,-29.98 -32.64,-9.08 -67.15,-16.29 -103.42,-21.76 -36.34,-5.45 -69.86,-8.16 -100.71,-8.16 -63.57,0 -112.98,8.6 -148.36,25.87 -35.39,17.26 -53.08,43.14 -53.08,77.55 0,25.49 9.94,45.42 29.92,59.9 19.96,14.55 56.24,28.18 108.89,40.83l103.42 24.48c165.13,36.36 283.13,88.96 353.88,157.95 70.79,68.94 106.18,157.85 106.18,266.72z"/>
  <path class="fil0" d="M6456.17 2179.49c-32.67,4.49 -68.98,6.8 -108.89,6.8 -81.66,0 -140.64,-13.22 -176.92,-39.47 -36.34,-26.28 -54.46,-77.58 -54.46,-153.8l0 -1597.91c19.96,-5.41 46.3,-10.85 78.94,-16.32 32.67,-5.44 68.95,-8.16 108.89,-8.16 81.66,0 140.17,13.63 175.56,40.83 35.38,27.26 53.1,78.94 53.1,155.17l0 313.05c38.11,-18.13 81.19,-33.09 129.29,-44.91 48.07,-11.79 100.25,-17.68 156.52,-17.68 174.2,0 310.74,43.99 409.67,132.01 98.9,88.05 148.36,220.06 148.36,396.07l0 819.36c-18.19,5.45 -43.55,10.41 -76.22,14.97 -32.67,4.49 -68.98,6.8 -108.89,6.8 -81.66,0 -140.65,-13.22 -176.93,-39.47 -36.31,-26.28 -54.46,-77.58 -54.46,-153.8l0 -623.38c0,-81.63 -20.4,-139.67 -61.23,-174.2 -40.83,-34.42 -93.01,-51.69 -156.52,-51.69 -41.78,0 -79.89,5.88 -114.33,17.65 -34.5,11.86 -66.26,25.87 -95.26,42.22l0 960.89c-18.19,5.45 -43.58,10.41 -76.22,14.97z"/>
  <path class="fil0" d="M8086.67 2164.53c-18.12,5.44 -43.55,10.41 -76.22,14.96 -32.64,4.49 -68.95,6.8 -108.87,6.8 -81.66,0 -140.17,-13.22 -175.56,-39.5 -35.38,-26.25 -53.1,-77.55 -53.1,-153.77l0 -1118.78c18.13,-5.47 43.56,-10.91 76.22,-16.32 32.67,-5.44 68.95,-8.16 108.89,-8.16 81.66,0 140.17,13.57 175.56,40.83 35.39,27.2 53.07,78.94 53.07,155.17l0 1118.78zm-438.23 -1682.26c0,-61.68 21.29,-114.36 63.96,-157.88 42.63,-43.55 98.43,-65.34 167.4,-65.34 68.98,0 124.78,21.79 167.43,65.34 42.61,43.52 63.98,96.21 63.98,157.88 0,63.51 -21.37,117.06 -63.98,160.58 -42.66,43.55 -98.45,65.31 -167.43,65.31 -68.98,0 -124.77,-21.77 -167.4,-65.31 -42.67,-43.52 -63.96,-97.07 -63.96,-160.58z"/>
  <path class="fil0" d="M8794.41 2164.53c-18.12,5.44 -43.55,10.41 -76.22,14.96 -32.64,4.49 -68.95,6.8 -108.87,6.8 -81.63,0 -140.67,-13.22 -176.92,-39.5 -36.33,-26.25 -54.46,-77.55 -54.46,-153.77l0 -830.28c0,-50.76 12.71,-94.29 38.11,-130.63 25.4,-36.25 60.76,-68.09 106.14,-95.26 59.87,-36.28 132.08,-64.87 216.42,-85.77 84.39,-20.84 172.85,-31.29 265.42,-31.29 188.72,0 283.07,63.51 283.07,190.56 0,30.83 -4.49,58.95 -13.57,84.35 -9.14,25.43 -19.04,47.24 -29.98,65.31 -41.75,-9.05 -92.54,-13.58 -152.44,-13.58 -52.6,0 -105.26,6.36 -157.89,19.08 -52.6,12.71 -98.9,29.92 -138.81,51.68l0 947.33z"/>
  <path class="fil0" d="M9918.61 1844.67c32.68,22.7 78.03,34 136.12,34 27.23,0 56.24,-3.11 87.14,-9.52 30.83,-6.36 57.15,-14.01 78.94,-23.15 16.32,18.18 29.89,39.08 40.83,62.65 10.84,23.57 16.32,50.82 16.32,81.66 0,63.5 -24.98,115.66 -74.89,156.49 -49.88,40.83 -136.57,61.26 -259.92,61.26 -152.44,0 -271.35,-35.01 -356.63,-104.81 -85.29,-69.81 -127.93,-183.75 -127.93,-341.64l0 -1222.17c19.92,-5.51 46.27,-11.32 78.94,-17.74 32.7,-6.29 68.03,-9.52 106.14,-9.52 79.85,0 137.51,14.07 172.9,42.19 35.33,28.18 53.07,79.42 53.07,153.81l0 176.92 375.64 0c9.04,18.18 18.12,41.33 27.2,69.42 9.05,28.18 13.64,57.63 13.64,88.46 0,58.16 -13.19,99.85 -39.44,125.25 -26.35,25.39 -60.41,38.11 -102.1,38.11l-274.94 0 0 528.08c0,50.82 16.33,87.55 48.96,110.25z"/>
  <path class="fil0" d="M10727.07 2174.06c-18.12,4.49 -38.05,6.77 -59.87,6.77 -78.03,0 -117.06,-32.64 -117.06,-98.02l0 -1679.5c9.05,-3.64 23.15,-7.72 42.19,-12.24 19.08,-4.49 39.5,-6.8 61.29,-6.8 76.22,0 114.33,32.61 114.33,97.98l0 490c43.52,-25.43 94.76,-48.11 153.77,-68.1 58.96,-19.92 125.66,-29.92 200.1,-29.92 76.22,0 145.61,10 208.23,29.92 62.6,19.99 116.58,50.35 161.96,91.18 45.33,40.89 80.69,92.57 106.14,155.17 25.4,62.65 38.11,135.7 38.11,219.15l0 792.1c-9.14,3.7 -23.15,7.75 -42.21,12.3 -19.04,4.49 -38.55,6.77 -58.48,6.77 -78.09,0 -117.06,-32.64 -117.06,-98.02l0 -707.72c0,-108.87 -29.98,-189.61 -89.85,-242.27 -59.9,-52.6 -138.84,-78.94 -236.82,-78.94 -63.54,0 -122.94,11.38 -178.31,34.03 -55.32,22.68 -103.9,50.35 -145.59,83.02l0 990.82c-9.14,3.7 -22.76,7.75 -40.89,12.3z"/>
  <path class="fil0" d="M12412.11 2025.71c76.17,0 139.22,-7.74 189.17,-23.15 49.91,-15.44 85.77,-30.4 107.53,-44.95l0 -394.68 -337.53 35.39c-94.4,9.08 -164.27,30.36 -209.62,63.92 -45.38,33.62 -68.06,83.05 -68.06,148.42 0,68.95 26.32,122.02 78.92,159.19 52.62,37.25 132.49,55.85 239.6,55.85zm-2.78 -1151.45c157.95,0 283.13,35.38 375.7,106.14 92.51,70.79 138.84,182.37 138.84,334.81l0 645.13c0,39.98 -7.74,70.34 -23.17,91.18 -15.4,20.9 -38.56,40.41 -69.39,58.57 -43.55,25.4 -101.17,47.63 -172.84,66.67 -71.73,19.08 -153.83,28.6 -246.35,28.6 -170.63,0 -302.64,-33.62 -396.07,-100.71 -93.51,-67.17 -140.23,-164.24 -140.23,-291.29 0,-119.74 39.06,-210 117.05,-270.88 78.03,-60.73 187.87,-98.4 329.4,-112.94l386.55 -38.12 0 -76.22c0,-90.74 -27.25,-156.97 -81.66,-198.71 -54.43,-41.7 -127.97,-62.6 -220.54,-62.6 -76.22,0 -147.86,10.85 -215.04,32.68 -67.14,21.79 -127.04,46.27 -179.64,73.47 -14.55,-12.66 -27.67,-27.2 -39.44,-43.55 -11.86,-16.35 -17.74,-34.42 -17.74,-54.47 0,-25.34 6.35,-46.24 19.07,-62.59 12.69,-16.35 32.68,-31.7 59.87,-46.24 49.02,-25.43 105.22,-44.94 168.79,-58.57 63.54,-13.57 132.43,-20.37 206.84,-20.37z"/>
  <path class="fil0" d="M14024.91 1124.69c-57.18,-47.18 -133.84,-70.81 -229.99,-70.81 -72.65,0 -137.1,9.14 -193.28,27.2 -56.32,18.21 -104.43,39.06 -144.31,62.68l0 1017.99c-9.08,3.7 -22.7,7.74 -40.82,12.29 -18.13,4.53 -38.12,6.77 -59.91,6.77 -77.99,0 -117.02,-32.64 -117.02,-98.02l0 -928.2c0,-38.11 7.66,-69.42 23.16,-93.9 15.34,-24.48 42.19,-48.58 80.26,-72.14 47.16,-29.03 109.76,-55.37 187.83,-78.91 78.03,-23.57 166.08,-35.43 264.09,-35.43 165.1,0 295.3,37.19 390.59,111.58 95.27,74.42 142.92,191.47 142.92,351.16l0 824.78c-9.14,3.7 -23.17,7.74 -42.21,12.29 -19.08,4.53 -38.59,6.77 -58.52,6.77 -78.05,0 -117.05,-32.64 -117.05,-98.02l0 -734.93c0,-101.64 -28.56,-176 -85.75,-223.19z"/>
  <path class="fil0" d="M15185.84 1051.18c-110.7,0 -202.35,38.59 -274.93,115.67 -72.59,77.14 -110.7,187.39 -114.33,330.79l748.61 -103.49c-9.1,-99.78 -44.05,-181.92 -104.81,-246.34 -60.85,-64.4 -145.61,-96.62 -254.54,-96.62zm-375.63 615.19c49.02,237.73 205.04,356.57 468.21,356.57 76.22,0 145.17,-12.66 206.9,-38.12 61.68,-25.34 110.64,-52.6 146.98,-81.66 43.52,25.49 65.31,59.9 65.31,103.48 0,25.43 -11.32,49.91 -34.04,73.47 -22.68,23.63 -53.51,44.53 -92.57,62.6 -39.03,18.18 -84.35,32.67 -136.1,43.61 -51.68,10.85 -107.53,16.32 -167.4,16.32 -210.48,0 -376.97,-57.15 -499.52,-171.48 -122.46,-114.36 -183.69,-281.29 -183.69,-500.9 0,-103.42 14.96,-195.52 44.88,-276.27 29.99,-80.72 71.67,-149.25 125.25,-205.51 53.49,-56.24 117.47,-99.37 191.88,-129.29 74.39,-29.99 155.17,-44.91 242.27,-44.91 81.69,0 156.93,13.57 225.94,40.8 68.95,27.2 128.38,65.79 178.35,115.69 49.82,49.94 88.85,108.89 116.99,176.93 28.12,68.09 42.19,142.92 42.19,224.58 0,39.94 -9.04,68.53 -27.2,85.74 -18.19,17.26 -43.52,27.73 -76.22,31.31l-838.41 117.06z"/>
 </g>
</svg>
